<svg width="46" height="47" viewBox="0 0 46 47" fill="none" xmlns="http://www.w3.org/2000/svg">
<path fill-rule="evenodd" clip-rule="evenodd" d="M22.9239 0C10.2959 0 0.0874634 10.7708 0.0874634 24.0958C0.0874634 34.7472 6.62838 43.7634 15.7024 46.9545C16.8368 47.1944 17.2524 46.436 17.2524 45.7981C17.2524 45.2395 17.215 43.3247 17.215 41.3296C10.8625 42.7661 9.53961 38.4573 9.53961 38.4573C8.51871 35.6647 7.00607 34.9469 7.00607 34.9469C4.92689 33.4709 7.15752 33.4709 7.15752 33.4709C9.46388 33.6305 10.6741 35.9442 10.6741 35.9442C12.7154 39.6141 16.0048 38.5772 17.3281 37.9388C17.517 36.3829 18.1223 35.3058 18.765 34.7075C13.6984 34.1489 8.36773 32.0746 8.36773 22.819C8.36773 20.186 9.27457 18.0318 10.7115 16.3565C10.4848 15.7582 9.69059 13.2844 10.9387 9.9733C10.9387 9.9733 12.8669 9.33489 17.2145 12.4467C19.0759 11.9192 20.9956 11.6509 22.9239 11.6487C24.8521 11.6487 26.8177 11.9282 28.6327 12.4467C32.9809 9.33489 34.9091 9.9733 34.9091 9.9733C36.1572 13.2844 35.3625 15.7582 35.1358 16.3565C36.6106 18.0318 37.48 20.186 37.48 22.819C37.48 32.0746 32.1493 34.1088 27.0448 34.7075C27.8769 35.4654 28.5949 36.9014 28.5949 39.1755C28.5949 42.4067 28.5575 45.0001 28.5575 45.7976C28.5575 46.436 28.9735 47.1944 30.1075 46.955C39.1815 43.7629 45.7224 34.7472 45.7224 24.0958C45.7598 10.7708 35.514 0 22.9239 0Z" fill="black"/>
</svg>
