<svg width="47" height="47" viewBox="0 0 47 47" fill="none" xmlns="http://www.w3.org/2000/svg">
<path d="M23.5407 0C17.325 0 16.5433 0.029375 14.1011 0.141C11.6589 0.2585 9.99546 0.652125 8.53815 1.23375C7.00882 1.82221 5.62394 2.74773 4.48117 3.94506C3.31417 5.11754 2.41209 6.53842 1.83854 8.1075C1.27165 9.59975 0.885135 11.3094 0.773475 13.8062C0.664678 16.3178 0.636047 17.1168 0.636047 23.5029C0.636047 29.8832 0.664678 30.6822 0.773475 33.1879C0.887999 35.6906 1.27165 37.3973 1.83854 38.8925C2.42547 40.4376 3.20709 41.7477 4.48117 43.0549C5.75237 44.3621 7.02931 45.167 8.53529 45.7662C9.99546 46.3479 11.656 46.7444 14.0954 46.859C16.5405 46.9706 17.3192 47 23.5407 47C29.7622 47 30.5381 46.9706 32.9831 46.859C35.4196 46.7415 37.0888 46.3479 38.5461 45.7662C40.0744 45.1774 41.4583 44.2519 42.6002 43.0549C43.8743 41.7477 44.6559 40.4376 45.2429 38.8925C45.8069 37.3973 46.1934 35.6906 46.3079 33.1879C46.4167 30.6822 46.4454 29.8832 46.4454 23.5C46.4454 17.1168 46.4167 16.3178 46.3079 13.8092C46.1934 11.3094 45.8069 9.59975 45.2429 8.1075C44.6693 6.53842 43.7672 5.11754 42.6002 3.94506C41.4575 2.74773 40.0726 1.82221 38.5432 1.23375C37.0831 0.652125 35.4168 0.255563 32.9803 0.141C30.5352 0.029375 29.7593 0 23.535 0L23.5407 0ZM21.4879 4.23588H23.5436C29.6591 4.23588 30.3835 4.25644 32.797 4.371C35.0302 4.47381 36.2442 4.85863 37.0516 5.17881C38.1195 5.60475 38.884 6.11587 39.6856 6.93837C40.4873 7.76087 40.9826 8.54225 41.3977 9.64088C41.7127 10.4663 42.0849 11.7118 42.1851 14.0031C42.2967 16.4794 42.3197 17.2226 42.3197 23.4941C42.3197 29.7657 42.2967 30.5118 42.1851 32.9881C42.0849 35.2794 41.7098 36.5219 41.3977 37.3503C41.0279 38.3693 40.4422 39.2914 39.6828 40.0499C38.8811 40.8724 38.1195 41.3806 37.0487 41.8065C36.2471 42.1296 35.0331 42.5115 32.797 42.6173C30.3835 42.7289 29.6591 42.7553 23.5436 42.7553C17.428 42.7553 16.7008 42.7289 14.2872 42.6173C12.054 42.5115 10.8429 42.1296 10.0355 41.8065C9.04158 41.4283 8.1419 40.8283 7.40151 40.0499C6.64071 39.2908 6.05394 38.3677 5.68366 37.3474C5.37158 36.5219 4.99652 35.2764 4.89631 32.9852C4.78752 30.5089 4.76461 29.7657 4.76461 23.4882C4.76461 17.2108 4.78752 16.4735 4.89631 13.9972C4.99938 11.7059 5.37158 10.4604 5.68652 9.63206C6.10167 8.53638 6.59985 7.75206 7.40151 6.92956C8.20317 6.10706 8.96475 5.59888 10.0355 5.17294C10.8429 4.84981 12.054 4.46794 14.2872 4.36219C16.4002 4.26231 17.219 4.23294 21.4879 4.23V4.23588ZM35.7689 8.13687C35.408 8.13687 35.0506 8.20982 34.7171 8.35154C34.3836 8.49325 34.0806 8.70097 33.8254 8.96283C33.5702 9.2247 33.3677 9.53557 33.2296 9.87771C33.0915 10.2198 33.0204 10.5865 33.0204 10.9569C33.0204 11.3272 33.0915 11.6939 33.2296 12.036C33.3677 12.3782 33.5702 12.6891 33.8254 12.9509C34.0806 13.2128 34.3836 13.4205 34.7171 13.5622C35.0506 13.7039 35.408 13.7769 35.7689 13.7769C36.4979 13.7769 37.197 13.4798 37.7124 12.9509C38.2279 12.4221 38.5175 11.7048 38.5175 10.9569C38.5175 10.209 38.2279 9.49169 37.7124 8.96283C37.197 8.43398 36.4979 8.13687 35.7689 8.13687ZM23.5436 11.4327C21.9834 11.4078 20.434 11.7015 18.9855 12.2968C17.537 12.8921 16.2184 13.7771 15.1065 14.9002C13.9946 16.0234 13.1115 17.3623 12.5088 18.839C11.906 20.3156 11.5956 21.9005 11.5956 23.5015C11.5956 25.1024 11.906 26.6873 12.5088 28.164C13.1115 29.6406 13.9946 30.9795 15.1065 32.1027C16.2184 33.2259 17.537 34.1108 18.9855 34.7061C20.434 35.3014 21.9834 35.5952 23.5436 35.5702C26.6315 35.5208 29.5767 34.2275 31.7434 31.9695C33.91 29.7116 35.1244 26.6701 35.1244 23.5015C35.1244 20.3329 33.91 17.2913 31.7434 15.0334C29.5767 12.7754 26.6315 11.4822 23.5436 11.4327ZM23.5436 15.6657C24.5463 15.6657 25.5393 15.8683 26.4657 16.262C27.3921 16.6557 28.2339 17.2328 28.9429 17.9603C29.652 18.6878 30.2144 19.5514 30.5982 20.5019C30.9819 21.4524 31.1794 22.4712 31.1794 23.5C31.1794 24.5288 30.9819 25.5476 30.5982 26.4981C30.2144 27.4486 29.652 28.3122 28.9429 29.0397C28.2339 29.7672 27.3921 30.3442 26.4657 30.738C25.5393 31.1317 24.5463 31.3343 23.5436 31.3343C21.5184 31.3343 19.5762 30.5089 18.1442 29.0397C16.7122 27.5705 15.9077 25.5778 15.9077 23.5C15.9077 21.4222 16.7122 19.4295 18.1442 17.9603C19.5762 16.4911 21.5184 15.6657 23.5436 15.6657Z" fill="black"/>
</svg>
